# Blender v2.63 (sub 0) OBJ File: ''
# www.blender.org
mtllib 1Ybase.mtl
o Mesh.001_Mesh.002_Ybase
v 196.471741 245.998169 -369.223480
v 196.471741 245.998123 -574.223389
v 196.471741 -119.001839 -369.223389
v 196.471741 -119.001884 -574.223389
v 371.471741 245.998123 -574.223389
v 371.471741 -119.001884 -574.223389
v 371.471741 -119.001839 -369.223389
v 371.471741 245.998169 -369.223480
v 238.222748 245.998123 -559.223389
v 196.471741 245.998123 -574.223389
v 211.471741 245.998154 -471.723480
v 329.720734 245.998123 -559.223389
v 371.471741 245.998123 -574.223389
v 238.222748 245.998169 -384.223480
v 356.471741 245.998154 -471.723480
v 329.720734 245.998169 -384.223480
v 238.222748 -104.001839 -384.223389
v 329.720734 -104.001839 -384.223389
v 211.471741 -104.001862 -471.723389
v 238.222748 -104.001884 -559.223389
v 329.720734 -104.001884 -559.223389
v 356.471741 -104.001862 -471.723389
v 329.720734 -104.001839 -384.223389
v 356.471741 -104.001862 -471.723389
v 238.222748 -104.001839 -384.223389
v 211.471741 -104.001862 -471.723389
v 329.720734 -104.001884 -559.223389
v 238.222748 -104.001884 -559.223389
vn -1.000000 0.000000 0.000000
vn 0.000000 0.000000 -1.000000
vn 0.000000 -1.000000 0.000000
vn -0.000000 0.000000 1.000000
vn 0.000000 1.000000 -0.000000
vn -0.000001 1.000000 -0.000000
vn 0.000001 1.000000 -0.000000
vn 1.000000 0.000000 0.000000
vn 0.956306 -0.000000 -0.292367
vn 0.956306 0.000000 0.292368
vn 0.956306 0.000000 0.292367
vn -0.956306 0.000000 0.292367
vn -0.956306 0.000000 0.292368
vn -0.956306 -0.000000 -0.292367
usemtl None
s off
f 1//1 2//1 3//1
f 3//1 2//1 4//1
f 2//2 5//2 6//2
f 4//2 2//2 6//2
f 7//3 3//3 4//3
f 7//3 4//3 6//3
f 8//4 1//4 7//4
f 7//4 1//4 3//4
f 9//5 10//5 11//5
f 9//5 12//5 13//5
f 10//5 9//5 13//5
f 11//5 1//5 14//5
f 13//5 12//5 15//5
f 15//5 16//5 8//5
f 10//6 1//6 11//6
f 14//5 1//5 8//5
f 16//5 14//5 8//5
f 15//7 8//7 13//7
f 7//8 5//8 8//8
f 6//8 5//8 7//8
f 17//2 14//2 16//2
f 18//2 17//2 16//2
f 17//9 19//9 11//9
f 17//9 11//9 14//9
f 20//10 9//10 11//10
f 19//11 20//11 11//11
f 21//4 12//4 9//4
f 20//4 21//4 9//4
f 21//12 22//12 15//12
f 21//13 15//13 12//13
f 18//14 16//14 15//14
f 22//14 18//14 15//14
f 23//5 24//5 25//5
f 25//5 24//5 26//5
f 24//5 27//5 28//5
f 26//5 24//5 28//5
