# Blender v2.63 (sub 0) OBJ File: 'DCS.blend'
# www.blender.org
mtllib tool.mtl
o tool
v -84.641006 -1.426564 -196.727585
v -84.271667 -1.497024 -196.727585
v -84.640961 -1.426566 -166.727585
v -84.981224 -1.266474 -196.727585
v -84.981178 -1.266476 -166.727585
v -85.630356 0.373051 -196.727585
v -85.677483 0.000016 -196.727585
v -85.677437 0.000014 -166.727585
v -85.270889 -1.026806 -166.727585
v -85.270935 -1.026803 -196.727585
v -85.491943 -0.722615 -196.727585
v -85.491943 0.722647 -196.727585
v -85.630310 0.373049 -166.727585
v -85.491898 -0.722617 -166.727585
v -85.491898 0.722645 -166.727585
v -85.630310 -0.373021 -166.727585
v -85.630356 -0.373019 -196.727585
v -85.270935 1.026836 -196.727585
v -85.270889 1.026834 -166.727585
v -84.981224 1.266506 -196.727585
v -84.641006 1.426596 -196.727585
v -84.981178 1.266504 -166.727585
v -84.271667 1.497056 -196.727585
v -84.640961 1.426594 -166.727585
v -83.896408 1.473446 -196.727585
v -84.271622 1.497054 -166.727585
v -83.538811 1.357256 -196.727585
v -83.896362 1.473444 -166.727585
v -83.538765 1.357254 -166.727585
v -83.221344 1.155786 -196.727585
v -83.221298 1.155784 -166.727585
v -82.963951 0.881694 -196.727585
v -82.963905 0.881692 -166.727585
v -82.782822 0.552203 -196.727585
v -82.782776 0.552201 -166.727585
v -82.689316 0.188016 -196.727585
v -82.689270 0.188014 -166.727585
v -82.689270 -0.187986 -166.727585
v -82.689316 -0.187984 -196.727585
v -82.782822 -0.552171 -196.727585
v -82.782776 -0.552173 -166.727585
v -82.963951 -0.881662 -196.727585
v -82.963905 -0.881664 -166.727585
v -83.221298 -1.155756 -166.727585
v -83.221344 -1.155753 -196.727585
v -83.538765 -1.357226 -166.727585
v -83.538811 -1.357224 -196.727585
v -83.896362 -1.473416 -166.727585
v -83.896408 -1.473414 -196.727585
v -84.271622 -1.497026 -166.727585
vn -0.187394 -0.982285 0.000000
vn -0.425770 -0.904831 0.000001
vn -0.992114 0.125337 0.000002
vn -0.637424 -0.770513 0.000001
vn -0.809014 -0.587789 0.000001
vn -0.929779 0.368119 0.000001
vn -0.929779 -0.368119 0.000001
vn -0.992114 -0.125337 0.000002
vn -0.809014 0.587789 0.000001
vn -0.637424 0.770513 0.000001
vn -0.425770 0.904831 0.000001
vn -0.187394 0.982285 0.000000
vn 0.062792 0.998027 -0.000000
vn 0.309016 0.951057 -0.000000
vn 0.535826 0.844329 -0.000001
vn 0.728964 0.684552 -0.000001
vn 0.876318 0.481734 -0.000001
vn 0.968584 0.248686 -0.000001
vn 1.000000 0.000000 -0.000002
vn 0.968584 -0.248686 -0.000001
vn 0.876318 -0.481734 -0.000001
vn 0.728964 -0.684552 -0.000001
vn 0.535826 -0.844329 -0.000001
vn 0.309016 -0.951057 -0.000001
vn 0.062792 -0.998027 -0.000000
vn -0.000000 -0.000000 1.000000
vn 0.000000 0.000000 -1.000000
usemtl 
s off
f 1//1 2//1 3//1
f 4//2 1//2 3//2
f 4//2 3//2 5//2
f 6//3 7//3 8//3
f 4//4 5//4 9//4
f 10//4 4//4 9//4
f 11//5 10//5 9//5
f 12//6 6//6 13//6
f 6//3 8//3 13//3
f 11//5 9//5 14//5
f 12//6 13//6 15//6
f 11//7 14//7 16//7
f 17//7 11//7 16//7
f 7//8 17//8 16//8
f 18//9 12//9 19//9
f 20//10 18//10 19//10
f 12//9 15//9 19//9
f 7//8 16//8 8//8
f 21//11 20//11 22//11
f 20//10 19//10 22//10
f 23//12 21//12 24//12
f 21//11 22//11 24//11
f 25//13 23//13 26//13
f 23//12 24//12 26//12
f 27//14 25//14 28//14
f 25//13 26//13 28//13
f 27//14 28//14 29//14
f 30//15 27//15 31//15
f 32//16 30//16 31//16
f 27//15 29//15 31//15
f 32//16 31//16 33//16
f 34//17 32//17 35//17
f 36//18 34//18 35//18
f 32//17 33//17 35//17
f 36//18 35//18 37//18
f 36//19 37//19 38//19
f 39//19 36//19 38//19
f 40//20 39//20 38//20
f 40//20 38//20 41//20
f 42//21 40//21 41//21
f 42//21 41//21 43//21
f 42//22 43//22 44//22
f 45//22 42//22 44//22
f 45//23 44//23 46//23
f 47//23 45//23 46//23
f 47//24 46//24 48//24
f 49//24 47//24 48//24
f 2//25 49//25 48//25
f 2//25 48//25 50//25
f 2//1 50//1 3//1
f 3//26 9//26 5//26
f 16//26 14//26 9//26
f 8//26 16//26 9//26
f 13//26 3//26 50//26
f 13//26 9//26 3//26
f 13//26 8//26 9//26
f 46//26 50//26 48//26
f 46//26 13//26 50//26
f 44//26 15//26 13//26
f 44//26 13//26 46//26
f 22//26 19//26 15//26
f 22//26 15//26 44//26
f 41//26 44//26 43//26
f 26//26 24//26 22//26
f 26//26 41//26 38//26
f 26//26 22//26 44//26
f 26//26 44//26 41//26
f 29//26 28//26 26//26
f 29//26 38//26 37//26
f 29//26 26//26 38//26
f 31//26 35//26 33//26
f 31//26 37//26 35//26
f 31//26 29//26 37//26
f 10//27 1//27 4//27
f 10//27 11//27 17//27
f 10//27 17//27 7//27
f 2//27 1//27 6//27
f 1//27 10//27 6//27
f 10//27 7//27 6//27
f 49//27 2//27 47//27
f 2//27 6//27 47//27
f 6//27 12//27 45//27
f 47//27 6//27 45//27
f 12//27 18//27 20//27
f 45//27 12//27 20//27
f 42//27 45//27 40//27
f 20//27 21//27 23//27
f 39//27 40//27 23//27
f 45//27 20//27 23//27
f 40//27 45//27 23//27
f 23//27 25//27 27//27
f 36//27 39//27 27//27
f 39//27 23//27 27//27
f 32//27 34//27 30//27
f 34//27 36//27 30//27
f 36//27 27//27 30//27
