# Blender v2.76 (sub 0) OBJ File: 'untitled.blend'
# www.blender.org
mtllib Xschiene.mtl
o schiene-x
v -447.217102 -182.799942 -418.044342
v 537.555908 -182.799942 -418.044434
v -447.217102 -200.799942 -418.044342
v 537.555908 -200.799942 -418.044434
v -447.217102 -172.905945 -414.119354
v -447.217102 -173.274933 -414.283356
v -447.217102 -176.819946 -414.172333
v -447.217102 -182.799942 -390.747345
v -447.217102 -200.799942 -388.044342
v -447.217102 -182.799942 -388.044342
v -447.217102 -173.965942 -415.245331
v -447.217102 -176.165939 -415.245331
v -447.217102 -176.279938 -414.830353
v -447.217102 -173.823944 -414.867340
v -447.217102 -171.799942 -413.349335
v -447.217102 -177.204941 -413.979340
v -447.217102 -172.506943 -414.056335
v -447.217102 -178.617935 -393.179352
v -447.217102 -171.799942 -392.327332
v -447.217102 -178.617935 -412.909332
v -447.217102 -177.190933 -392.105347
v -447.217102 -177.627945 -392.189331
v -447.217102 -173.986938 -390.323334
v -447.217102 -176.157944 -390.767334
v -447.217102 -176.186935 -390.323334
v -447.217102 -173.862946 -390.731354
v -447.217102 -176.256943 -391.202332
v -447.217102 -173.631943 -391.088348
v -447.217102 -176.475937 -391.589355
v -447.217102 -173.311935 -391.369354
v -447.217102 -176.795944 -391.899353
v -447.217102 -172.926941 -391.551331
v -447.217102 -172.506943 -391.620331
v -447.217102 -180.367935 -412.909332
v -447.217102 -180.367935 -393.179352
v -447.217102 -182.799942 -415.341339
v -447.217102 -177.627945 -413.899353
v -447.217102 -173.587936 -414.539337
v -447.217102 -176.503937 -414.463348
v 537.555908 -182.799942 -415.341431
v 537.555908 -180.367935 -412.909424
v 537.555908 -180.367935 -393.179443
v 537.555908 -182.799942 -390.747437
v 537.555908 -178.617935 -412.909424
v 537.555908 -172.926941 -391.551422
v 537.555908 -171.799942 -392.327423
v 537.555908 -172.506943 -391.620422
v 537.555908 -200.799942 -388.044434
v 537.555908 -176.157944 -390.767426
v 537.555908 -173.986938 -390.323425
v 537.555908 -176.186935 -390.323425
v 537.555908 -173.862946 -390.731445
v 537.555908 -176.256943 -391.202423
v 537.555908 -173.631943 -391.088440
v 537.555908 -176.475937 -391.589447
v 537.555908 -173.311935 -391.369446
v 537.555908 -176.795944 -391.899445
v 537.555908 -177.190933 -392.105438
v 537.555908 -178.617935 -393.179443
v 537.555908 -177.627945 -392.189423
v 537.555908 -171.799942 -413.349426
v 537.555908 -172.905945 -414.119446
v 537.555908 -172.506943 -414.056427
v 537.555908 -182.799942 -388.044434
v 537.555908 -176.503937 -414.463440
v 537.555908 -173.823944 -414.867432
v 537.555908 -173.587936 -414.539429
v 537.555908 -176.819946 -414.172424
v 537.555908 -173.274933 -414.283447
v 537.555908 -176.279938 -414.830444
v 537.555908 -173.965942 -415.245422
v 537.555908 -177.204941 -413.979431
v 537.555908 -176.165939 -415.245422
v 537.555908 -177.627945 -413.899445
v 537.555908 -182.799911 -543.044434
v 537.555908 -200.799911 -543.044434
v -447.217102 -182.799911 -543.044312
v -447.217102 -200.799911 -543.044312
v -447.217102 -173.823914 -539.867310
v -447.217102 -176.503906 -539.463318
v -447.217102 -173.587906 -539.539307
v -447.217102 -172.905914 -539.119324
v -447.217102 -173.274902 -539.283325
v -447.217102 -176.819916 -539.172302
v -447.217102 -182.799911 -515.747314
v -447.217102 -200.799911 -513.044312
v -447.217102 -182.799911 -513.044312
v -447.217102 -173.965912 -540.245300
v -447.217102 -176.165909 -540.245300
v -447.217102 -176.279907 -539.830322
v -447.217102 -171.799911 -538.349304
v -447.217102 -177.204910 -538.979309
v -447.217102 -172.506912 -539.056335
v -447.217102 -178.617905 -518.179321
v -447.217102 -171.799911 -517.327332
v -447.217102 -178.617905 -537.909302
v -447.217102 -177.190903 -517.104309
v -447.217102 -177.627914 -517.189331
v -447.217102 -173.986908 -515.323303
v -447.217102 -176.157913 -515.768311
v -447.217102 -176.186905 -515.323303
v -447.217102 -173.862915 -515.731323
v -447.217102 -176.256912 -516.202332
v -447.217102 -173.631912 -516.088318
v -447.217102 -176.475906 -516.589294
v -447.217102 -173.311905 -516.369324
v -447.217102 -176.795914 -516.899292
v -447.217102 -172.926910 -516.551331
v -447.217102 -172.506912 -516.620300
v -447.217102 -180.367905 -537.909302
v -447.217102 -180.367905 -518.179321
v -447.217102 -182.799911 -540.341309
v -447.217102 -177.627914 -538.899292
v 537.555908 -182.799911 -540.341431
v 537.555908 -180.367905 -537.909424
v 537.555908 -178.617905 -537.909424
v 537.555908 -180.367905 -518.179443
v 537.555908 -182.799911 -515.747437
v 537.555908 -200.799911 -513.044434
v 537.555908 -172.926910 -516.551453
v 537.555908 -171.799911 -517.327454
v 537.555908 -172.506912 -516.620422
v 537.555908 -176.157913 -515.768433
v 537.555908 -173.986908 -515.323425
v 537.555908 -176.186905 -515.323425
v 537.555908 -173.862915 -515.731445
v 537.555908 -176.256912 -516.202454
v 537.555908 -173.631912 -516.088440
v 537.555908 -176.475906 -516.589417
v 537.555908 -173.311905 -516.369446
v 537.555908 -176.795914 -516.899414
v 537.555908 -177.190903 -517.104431
v 537.555908 -178.617905 -518.179443
v 537.555908 -177.627914 -517.189453
v 537.555908 -171.799911 -538.349426
v 537.555908 -172.905914 -539.119446
v 537.555908 -172.506912 -539.056458
v 537.555908 -182.799911 -513.044434
v 537.555908 -176.503906 -539.463440
v 537.555908 -173.823914 -539.867432
v 537.555908 -173.587906 -539.539429
v 537.555908 -176.819916 -539.172424
v 537.555908 -173.274902 -539.283447
v 537.555908 -176.279907 -539.830444
v 537.555908 -173.965912 -540.245422
v 537.555908 -177.204910 -538.979431
v 537.555908 -176.165909 -540.245422
v 537.555908 -177.627914 -538.899414
vn -0.000000 0.000000 -1.000000
vn -1.000000 0.000000 0.000000
vn -1.000000 -0.000100 0.000000
vn 0.000000 1.000000 0.000000
vn 1.000000 -0.000000 0.000000
vn 1.000000 0.000100 0.000000
vn 0.000000 -1.000000 -0.000000
vn -0.000000 0.707100 -0.707100
vn -0.000000 -0.707100 -0.707100
vn -0.000000 -0.185800 -0.982600
vn -0.000000 -0.448100 -0.894000
vn -0.000000 -0.853600 -0.521000
vn -0.000000 -0.677400 -0.735600
vn -0.000000 -0.964300 -0.264900
vn -0.000000 0.936100 -0.351700
vn -0.000000 0.811700 -0.584000
vn -0.000000 0.811700 -0.584100
vn -0.000000 0.633100 -0.774100
vn -0.000000 0.406200 -0.913800
vn -0.000000 0.156000 -0.987800
vn 0.000000 0.707100 0.707100
vn 0.000000 0.162100 0.986800
vn 0.000000 0.427300 0.904100
vn 0.000000 0.427400 0.904100
vn 0.000000 0.839600 0.543200
vn 0.000000 0.839600 0.543300
vn 0.000000 0.659800 0.751400
vn 0.000000 0.956800 0.290800
vn 0.000000 0.000000 1.000000
vn -0.000000 -0.997900 -0.065100
vn -0.000000 -0.997900 -0.065200
vn 0.000000 -0.975100 0.221900
vn 0.000000 -0.870300 0.492500
vn 0.000000 -0.462400 0.886700
vn 0.000000 -0.695800 0.718300
vn 0.000000 -0.188700 0.982000
vn 0.000000 -0.707100 0.707100
vn 1.000000 -0.000100 0.000000
vn 1.000000 0.000200 0.000000
vn -0.000000 -0.185900 -0.982600
vn -0.000000 0.155900 -0.987800
vn 0.000000 0.162000 0.986800
vn -0.000000 -0.997900 -0.065000
vn 0.000000 -0.975000 0.222400
vn 0.000000 -0.460700 0.887600
vn 0.000000 -0.191000 0.981600
usemtl None.001
s 1
f 1//1 2//1 3//1
f 2//1 4//1 3//1
f 5//2 6//2 7//2
f 8//2 9//2 10//2
f 11//2 12//2 13//2
f 11//2 13//2 14//2
f 15//2 7//2 16//2
f 15//2 17//2 5//2
f 15//2 18//2 19//2
f 15//2 20//2 18//2
f 15//2 16//2 20//2
f 15//2 5//2 7//2
f 21//2 18//2 22//2
f 23//2 24//2 25//2
f 26//2 27//2 24//2
f 26//2 24//2 23//2
f 3//2 9//2 8//2
f 28//2 29//2 27//2
f 28//2 27//2 26//2
f 30//2 31//2 29//2
f 30//2 29//2 28//2
f 32//2 31//2 30//2
f 19//2 32//2 33//3
f 19//2 21//2 31//2
f 19//2 18//2 21//2
f 19//2 31//2 32//2
f 34//2 35//2 18//2
f 34//2 8//2 35//2
f 36//2 8//2 34//2
f 36//2 3//2 8//2
f 20//2 34//2 18//2
f 1//2 3//2 36//2
f 16//2 37//2 20//2
f 38//2 39//2 7//2
f 6//2 38//2 7//2
f 14//2 13//2 39//2
f 14//2 39//2 38//2
f 2//4 1//4 36//4
f 40//4 2//4 36//4
f 41//5 42//5 43//5
f 41//5 44//5 42//5
f 40//5 41//5 43//5
f 45//5 46//5 47//6
f 4//5 2//5 40//5
f 4//5 43//5 48//5
f 4//5 40//5 43//5
f 49//5 50//5 51//5
f 49//5 52//5 50//5
f 53//5 54//5 52//5
f 53//5 52//5 49//5
f 55//5 56//5 54//5
f 55//5 54//5 53//5
f 57//5 45//5 56//5
f 57//5 46//5 45//5
f 57//5 56//5 55//5
f 58//5 46//5 57//5
f 59//5 58//5 60//6
f 59//5 46//5 58//5
f 61//5 46//5 59//5
f 62//5 63//6 61//5
f 48//5 43//5 64//5
f 65//5 66//5 67//5
f 68//5 69//5 62//5
f 68//5 67//5 69//5
f 68//5 62//5 61//5
f 68//5 65//5 67//5
f 70//5 71//5 66//5
f 70//5 66//5 65//5
f 72//5 68//5 61//5
f 73//5 71//5 70//5
f 44//5 72//5 61//5
f 44//5 59//5 42//5
f 44//5 61//5 59//5
f 74//6 72//5 44//5
f 3//7 4//7 9//7
f 4//7 48//7 9//7
f 40//8 36//8 34//8
f 41//8 40//8 34//8
f 41//1 34//1 20//1
f 44//1 41//1 20//1
f 44//9 20//9 37//9
f 74//9 44//9 37//9
f 74//10 37//10 16//10
f 72//10 74//10 16//10
f 68//11 16//11 7//11
f 68//11 72//11 16//11
f 65//12 39//12 13//12
f 65//13 7//13 39//13
f 65//13 68//13 7//13
f 70//12 65//12 13//12
f 73//14 13//14 12//14
f 73//14 70//14 13//14
f 73//1 12//1 11//1
f 71//1 73//1 11//1
f 71//15 11//15 14//15
f 66//16 14//17 38//17
f 66//15 71//15 14//15
f 67//18 38//18 6//18
f 67//16 66//16 38//17
f 69//19 6//19 5//19
f 69//18 67//18 6//18
f 62//19 69//19 5//19
f 63//20 5//20 17//20
f 63//20 62//20 5//20
f 61//8 17//8 15//8
f 61//8 63//8 17//8
f 46//4 15//4 19//4
f 46//4 61//4 15//4
f 46//21 19//21 33//21
f 47//21 46//21 33//21
f 47//22 33//22 32//22
f 45//23 32//24 30//24
f 45//22 47//22 32//22
f 56//23 45//23 30//24
f 54//25 28//26 26//26
f 54//27 30//27 28//27
f 54//27 56//27 30//27
f 52//28 26//28 23//28
f 52//25 54//25 26//26
f 50//28 52//28 23//28
f 50//29 23//29 25//29
f 51//29 50//29 25//29
f 51//30 25//31 24//31
f 49//32 24//32 27//32
f 49//30 51//30 24//31
f 53//33 27//33 29//33
f 53//32 49//32 27//32
f 55//33 53//33 29//33
f 57//34 31//34 21//34
f 57//35 29//35 31//35
f 57//35 55//35 29//35
f 58//34 57//34 21//34
f 60//36 21//36 22//36
f 60//36 58//36 21//36
f 60//37 22//37 18//37
f 59//37 60//37 18//37
f 59//29 18//29 35//29
f 42//29 59//29 35//29
f 42//21 35//21 8//21
f 43//21 42//21 8//21
f 43//4 8//4 10//4
f 64//4 43//4 10//4
f 10//29 48//29 64//29
f 9//29 48//29 10//29
f 75//1 76//1 77//1
f 77//1 76//1 78//1
f 79//2 80//2 81//2
f 82//2 83//2 84//2
f 85//2 86//2 87//2
f 88//2 89//2 90//2
f 88//2 90//2 79//2
f 91//2 84//2 92//2
f 91//2 93//2 82//2
f 91//2 94//2 95//2
f 91//2 96//2 94//2
f 91//2 92//2 96//2
f 91//2 82//2 84//2
f 97//2 94//2 98//2
f 99//2 100//2 101//2
f 102//2 103//2 100//2
f 102//2 100//2 99//2
f 78//2 86//2 85//2
f 104//2 105//2 103//2
f 104//2 103//2 102//2
f 106//2 107//2 105//2
f 106//2 105//2 104//2
f 108//2 107//2 106//2
f 95//2 108//2 109//2
f 95//2 97//2 107//2
f 95//2 94//2 97//2
f 95//2 107//2 108//2
f 110//2 111//2 94//2
f 112//2 85//2 111//2
f 112//2 78//2 85//2
f 112//2 111//2 110//2
f 96//2 110//2 94//2
f 77//2 78//2 112//2
f 92//2 113//2 96//2
f 81//2 80//2 84//2
f 83//2 81//2 84//2
f 79//2 90//2 80//2
f 75//4 77//4 112//4
f 114//4 75//4 112//4
f 115//5 116//5 117//5
f 114//5 115//5 117//5
f 114//5 117//5 118//5
f 114//5 118//5 119//5
f 120//5 121//5 122//38
f 76//5 75//5 114//5
f 76//5 114//5 119//5
f 123//5 124//5 125//5
f 123//5 126//5 124//5
f 127//5 128//5 126//5
f 127//5 126//5 123//5
f 129//5 130//5 128//5
f 129//5 128//5 127//5
f 131//5 120//5 130//5
f 131//5 121//5 120//5
f 131//5 130//5 129//5
f 132//5 121//5 131//5
f 133//5 132//5 134//6
f 133//5 121//5 132//5
f 135//5 121//5 133//5
f 136//5 137//39 135//5
f 119//5 118//5 138//5
f 139//5 140//5 141//5
f 142//5 143//5 136//5
f 142//5 141//5 143//5
f 142//5 136//5 135//5
f 142//5 139//5 141//5
f 144//5 145//5 140//5
f 144//5 140//5 139//5
f 146//5 142//5 135//5
f 147//5 145//5 144//5
f 116//5 146//5 135//5
f 116//5 133//5 117//5
f 116//5 135//5 133//5
f 148//6 146//5 116//5
f 78//7 76//7 86//7
f 76//7 119//7 86//7
f 114//8 112//8 110//8
f 115//8 114//8 110//8
f 115//1 110//1 96//1
f 116//1 115//1 96//1
f 116//9 96//9 113//9
f 148//9 116//9 113//9
f 148//40 113//40 92//40
f 146//11 92//11 84//11
f 146//40 148//40 92//40
f 142//11 146//11 84//11
f 139//13 84//13 80//13
f 139//13 142//13 84//13
f 144//14 90//14 89//14
f 144//12 80//12 90//12
f 144//12 139//12 80//12
f 147//14 144//14 89//14
f 147//1 89//1 88//1
f 145//1 147//1 88//1
f 145//15 88//15 79//15
f 140//15 145//15 79//15
f 141//18 81//18 83//18
f 141//17 79//16 81//16
f 141//17 140//17 79//16
f 143//18 141//18 83//18
f 136//41 82//41 93//41
f 136//19 83//19 82//19
f 136//19 143//19 83//19
f 137//41 136//41 93//41
f 135//8 93//8 91//8
f 135//8 137//8 93//8
f 121//4 91//4 95//4
f 121//4 135//4 91//4
f 122//21 95//21 109//21
f 122//21 121//21 95//21
f 122//42 109//42 108//42
f 120//42 122//42 108//42
f 130//24 108//24 106//24
f 130//24 120//24 108//24
f 128//27 106//27 104//27
f 128//27 130//27 106//27
f 126//26 104//25 102//25
f 126//26 128//26 104//25
f 124//28 102//28 99//28
f 124//28 126//28 102//28
f 124//29 99//29 101//29
f 125//29 124//29 101//29
f 125//43 101//43 100//43
f 123//43 125//43 100//43
f 127//44 100//44 103//44
f 127//44 123//44 100//44
f 129//33 103//33 105//33
f 129//33 127//33 103//33
f 131//35 105//35 107//35
f 131//35 129//35 105//35
f 132//45 107//45 97//45
f 132//45 131//45 107//45
f 134//46 97//46 98//46
f 134//46 132//46 97//46
f 134//37 98//37 94//37
f 133//37 134//37 94//37
f 133//29 94//29 111//29
f 117//29 133//29 111//29
f 117//21 111//21 85//21
f 118//21 117//21 85//21
f 118//4 85//4 87//4
f 138//4 118//4 87//4
f 87//29 119//29 138//29
f 86//29 119//29 87//29
