# Blender v2.63 (sub 0) OBJ File: 'DCS.blend'
# www.blender.org
mtllib Ybase.mtl
o ybase_Mesh_Mesh.001_Mesh.002_Ybase
v -133.371277 245.998108 -369.223541
v -133.371277 245.998032 -574.223389
v -133.371277 -119.001884 -369.223389
v -133.371277 -119.001976 -574.223389
v 41.628723 245.998032 -574.223389
v 41.628723 -119.001976 -574.223389
v 41.628723 -119.001884 -369.223389
v 41.628723 245.998108 -369.223541
v -91.620270 245.998032 -559.223389
v -133.371277 245.998032 -574.223389
v -118.371277 245.998093 -471.723541
v -0.122284 245.998032 -559.223389
v 41.628723 245.998032 -574.223389
v -91.620270 245.998108 -384.223541
v 26.628723 245.998093 -471.723541
v -0.122284 245.998108 -384.223541
v -91.620270 -104.001892 -384.223389
v -0.122284 -104.001892 -384.223389
v -118.371277 -104.001930 -471.723389
v -91.620270 -104.001976 -559.223389
v -0.122284 -104.001976 -559.223389
v 26.628723 -104.001930 -471.723389
v -0.122284 -104.001892 -384.223389
v 26.628723 -104.001930 -471.723389
v -91.620270 -104.001892 -384.223389
v -118.371277 -104.001930 -471.723389
v -0.122284 -104.001976 -559.223389
v -91.620270 -104.001976 -559.223389
vn -1.000000 0.000000 0.000000
vn 0.000000 0.000000 -1.000000
vn 0.000000 -1.000000 0.000000
vn -0.000000 0.000000 1.000000
vn 0.000000 1.000000 -0.000001
vn 0.000000 1.000000 0.000000
vn -0.000002 1.000000 -0.000000
vn 0.000002 1.000000 -0.000000
vn 1.000000 0.000000 0.000000
vn 0.956306 -0.000000 -0.292367
vn 0.956306 0.000000 0.292368
vn 0.956306 0.000000 0.292367
vn -0.956306 0.000000 0.292367
vn -0.956306 0.000000 0.292368
vn -0.956306 -0.000000 -0.292367
usemtl None.014
s off
f 1//1 2//1 3//1
f 3//1 2//1 4//1
f 2//2 5//2 6//2
f 4//2 2//2 6//2
f 7//3 3//3 4//3
f 7//3 4//3 6//3
f 8//4 1//4 7//4
f 7//4 1//4 3//4
f 9//5 10//5 11//5
f 9//6 12//6 13//6
f 10//6 9//6 13//6
f 11//6 1//6 14//6
f 13//5 12//5 15//5
f 15//6 16//6 8//6
f 10//7 1//7 11//7
f 14//6 1//6 8//6
f 16//6 14//6 8//6
f 15//8 8//8 13//8
f 7//9 5//9 8//9
f 6//9 5//9 7//9
f 17//2 14//2 16//2
f 18//2 17//2 16//2
f 17//10 19//10 11//10
f 17//10 11//10 14//10
f 20//11 9//11 11//11
f 19//12 20//12 11//12
f 21//4 12//4 9//4
f 20//4 21//4 9//4
f 21//13 22//13 15//13
f 21//14 15//14 12//14
f 18//15 16//15 15//15
f 22//15 18//15 15//15
f 23//6 24//6 25//6
f 25//6 24//6 26//6
f 24//5 27//5 28//5
f 26//5 24//5 28//5
