# Blender v2.63 (sub 0) OBJ File: 'DCS.blend'
# www.blender.org
mtllib Ytisch.mtl
o ytisch_Mesh.007_tisch-z.001
v -133.147614 87.757561 -287.430481
v -133.147614 87.757553 -320.430511
v -133.147614 81.757553 -320.430511
v -133.147614 25.757563 -320.430481
v -133.147614 81.757553 -328.430511
v -133.147614 25.757559 -328.430481
v -133.147614 -24.242439 -320.430481
v -133.147614 -87.242432 -287.430450
v -133.147614 -80.242439 -320.430450
v -133.147614 -87.242439 -320.430450
v -133.147614 -24.242447 -328.430481
v -133.147614 -80.242439 -328.430450
v -83.147614 25.757559 -328.430481
v -83.147614 81.757553 -328.430511
v -83.147614 25.757563 -320.430481
v -83.147614 -24.242439 -320.430481
v -83.147614 -24.242447 -328.430481
v -83.147614 -80.242439 -328.430450
v -83.147614 -80.242439 -320.430450
v -83.147614 -87.242439 -320.430450
v 41.852386 -87.242432 -287.430450
v -8.147614 -87.242439 -320.430450
v 41.852386 -87.242439 -320.430450
v 41.852386 87.757561 -287.430481
v -83.147614 87.757553 -320.430511
v 41.852386 87.757553 -320.430511
v -8.147614 87.757553 -320.430511
v -83.147614 81.757553 -320.430511
v -8.147614 25.757563 -320.430481
v -8.147614 -24.242439 -320.430481
v -8.147614 -80.242439 -320.430450
v 41.852386 81.757553 -320.430511
v 41.852386 25.757563 -320.430481
v 41.852386 25.757559 -328.430481
v 41.852386 81.757553 -328.430511
v 41.852386 -24.242439 -320.430481
v 41.852386 -80.242439 -320.430450
v 41.852386 -24.242447 -328.430481
v 41.852386 -80.242439 -328.430450
v -8.147614 81.757553 -320.430511
v -8.147614 25.757559 -328.430481
v -8.147614 81.757553 -328.430511
v -8.147614 -24.242447 -328.430481
v -8.147614 -80.242439 -328.430450
vn -0.577349 0.577349 0.577349
vn -0.577349 0.577349 -0.577349
vn -0.904508 0.301492 -0.301492
vn -0.904508 -0.301492 -0.301492
vn -0.577349 -0.577349 -0.577349
vn -0.577349 -0.577349 0.577349
vn 0.577349 -0.577349 -0.577349
vn 0.577349 0.577349 -0.577349
vn 0.301492 -0.301492 -0.904508
vn 0.301492 0.301492 -0.904508
vn 0.000000 -0.707083 -0.707083
vn 0.577349 -0.577349 0.577349
vn 0.577349 0.577349 0.577349
vn 0.000000 0.707083 -0.707083
vn -0.301492 -0.301492 -0.904508
vn -0.301492 0.301492 -0.904508
vn 0.904508 0.301492 -0.301492
vn 0.904508 -0.301492 -0.301492
usemtl None.019
s 1
f 1//1 2//2 3//3
f 1//1 3//3 4//4
f 3//3 5//2 6//5
f 4//4 3//3 6//5
f 1//1 4//4 7//3
f 1//1 7//3 8//6
f 8//6 7//3 9//4
f 8//6 9//4 10//5
f 7//3 11//2 12//5
f 9//4 7//3 12//5
f 6//5 5//2 13//7
f 5//2 14//8 13//7
f 13//7 15//9 6//5
f 15//9 4//4 6//5
f 16//10 7//3 15//9
f 15//9 7//3 4//4
f 16//10 17//8 7//3
f 17//8 11//2 7//3
f 12//5 11//2 18//7
f 11//2 17//8 18//7
f 18//7 19//9 12//5
f 19//9 9//4 12//5
f 19//9 20//11 10//5
f 19//9 10//5 9//4
f 20//11 8//6 10//5
f 21//12 22//11 23//7
f 21//12 8//6 20//11
f 21//12 20//11 22//11
f 24//13 1//1 21//12
f 21//12 1//1 8//6
f 2//2 1//1 25//14
f 26//8 27//14 24//13
f 25//14 1//1 24//13
f 27//14 25//14 24//13
f 25//14 28//10 2//2
f 28//10 3//3 2//2
f 28//10 14//8 5//2
f 28//10 5//2 3//3
f 14//8 28//10 15//9
f 14//8 15//9 13//7
f 29//15 30//16 16//10
f 29//15 16//10 15//9
f 17//8 16//10 19//9
f 17//8 19//9 18//7
f 31//15 22//11 20//11
f 31//15 20//11 19//9
f 32//17 26//8 24//13
f 33//18 32//17 24//13
f 34//7 35//8 32//17
f 34//7 32//17 33//18
f 36//17 33//18 24//13
f 21//12 36//17 24//13
f 37//18 38//8 36//17
f 37//18 36//17 21//12
f 23//7 37//18 21//12
f 39//7 38//8 37//18
f 37//18 23//7 22//11
f 37//18 22//11 31//15
f 27//14 40//16 28//10
f 27//14 28//10 25//14
f 26//8 32//17 27//14
f 32//17 40//16 27//14
f 40//16 29//15 28//10
f 28//10 29//15 15//9
f 33//18 36//17 29//15
f 36//17 30//16 29//15
f 30//16 31//15 16//10
f 16//10 31//15 19//9
f 41//5 42//2 34//7
f 42//2 35//8 34//7
f 34//7 33//18 29//15
f 34//7 29//15 41//5
f 36//17 38//8 43//2
f 36//17 43//2 30//16
f 44//5 43//2 39//7
f 43//2 38//8 39//7
f 39//7 37//18 31//15
f 39//7 31//15 44//5
f 32//17 35//8 42//2
f 32//17 42//2 40//16
f 40//16 42//2 41//5
f 40//16 41//5 29//15
f 30//16 43//2 31//15
f 43//2 44//5 31//15
